<?xml version="1.0" encoding="UTF-8" standalone="no"?>
<svg
   xmlns:dc="http://purl.org/dc/elements/1.1/"
   xmlns:cc="http://creativecommons.org/ns#"
   xmlns:rdf="http://www.w3.org/1999/02/22-rdf-syntax-ns#"
   xmlns:svg="http://www.w3.org/2000/svg"
   xmlns="http://www.w3.org/2000/svg"
   xmlns:sodipodi="http://sodipodi.sourceforge.net/DTD/sodipodi-0.dtd"
   xmlns:inkscape="http://www.inkscape.org/namespaces/inkscape"
   version="1.1"
   viewBox="0 0 510.66671 127.66665"
   stroke-miterlimit="10"
   id="svg2"
   inkscape:version="0.91 r13725"
   sodipodi:docname="vtxSplitting.svg"
   width="510.66669"
   height="127.66666"
   style="fill:none;stroke:none;stroke-linecap:square;stroke-miterlimit:10">
  <metadata
     id="metadata283">
    <rdf:RDF>
      <cc:Work
         rdf:about="">
        <dc:format>image/svg+xml</dc:format>
        <dc:type
           rdf:resource="http://purl.org/dc/dcmitype/StillImage" />
        <dc:title></dc:title>
      </cc:Work>
    </rdf:RDF>
  </metadata>
  <defs
     id="defs281" />
  <sodipodi:namedview
     pagecolor="#ffffff"
     bordercolor="#666666"
     borderopacity="1"
     objecttolerance="10"
     gridtolerance="10"
     guidetolerance="10"
     inkscape:pageopacity="0"
     inkscape:pageshadow="2"
     inkscape:window-width="1918"
     inkscape:window-height="2139"
     id="namedview279"
     showgrid="false"
     fit-margin-top="0"
     fit-margin-left="0"
     fit-margin-right="0"
     fit-margin-bottom="0"
     inkscape:zoom="1.1055486"
     inkscape:cx="250.81069"
     inkscape:cy="63.833372"
     inkscape:window-x="1200"
     inkscape:window-y="19"
     inkscape:window-maximized="0"
     inkscape:current-layer="g7" />
  <clipPath
     id="p_1.0">
    <path
       d="m 0,0 1122.5197,0 0,793.7008 L 0,793.7008 0,0 Z"
       id="path5"
       inkscape:connector-curvature="0"
       style="clip-rule:nonzero" />
  </clipPath>
  <g
     clip-path="url(#p_1.0)"
     id="g7"
     transform="translate(-305.9265,-333.01712)">
    <path
       d="m 0,0 1122.5197,0 0,793.7008 -1122.5197,0 z"
       id="path9"
       inkscape:connector-curvature="0"
       style="fill:#000000;fill-opacity:0;fill-rule:nonzero" />
    <path
       d="m 305.9265,333.01712 510.6667,0 0,127.66666 -510.6667,0 z"
       id="path11"
       inkscape:connector-curvature="0"
       style="fill:#000000;fill-opacity:0;fill-rule:nonzero" />
    <path
       d="m 347.02887,423.91855 0,27.53299 43.96609,0 0,-27.53299 z"
       id="path13"
       inkscape:connector-curvature="0"
       style="fill:#ffffff;fill-rule:nonzero" />
    <path
       d="m 359.45074,440.3148 0,0.20312 q -0.8125,-0.42187 -1.35938,-0.96875 -0.76562,-0.76562 -1.1875,-1.82812 -0.42187,-1.0625 -0.42187,-2.20313 0,-1.65625 0.8125,-3.03125 0.82812,-1.375 2.15625,-1.96875 l 0,0.23438 q -0.67188,0.35937 -1.09375,1 -0.42188,0.625 -0.64063,1.60937 -0.20312,0.96875 -0.20312,2.01563 0,1.15625 0.1875,2.09375 0.14062,0.73437 0.32812,1.1875 0.20313,0.45312 0.53125,0.85937 0.34375,0.42188 0.89063,0.79688 z m 3.25174,-2.85938 q -0.75,0.57813 -0.9375,0.67188 -0.29688,0.14062 -0.625,0.14062 -0.51563,0 -0.84375,-0.34375 -0.32813,-0.35937 -0.32813,-0.9375 0,-0.35937 0.15625,-0.60937 0.23438,-0.375 0.76563,-0.6875 0.54687,-0.32813 1.8125,-0.79688 l 0,-0.1875 q 0,-0.73437 -0.23438,-1 -0.21875,-0.28125 -0.67187,-0.28125 -0.34375,0 -0.53125,0.17188 -0.20313,0.1875 -0.20313,0.42187 l 0,0.3125 q 0,0.25 -0.125,0.39063 -0.125,0.125 -0.32812,0.125 -0.20313,0 -0.32813,-0.14063 -0.125,-0.14062 -0.125,-0.375 0,-0.46875 0.46875,-0.84375 0.48438,-0.39062 1.32813,-0.39062 0.65625,0 1.07812,0.21875 0.3125,0.17187 0.46875,0.51562 0.0937,0.23438 0.0937,0.95313 l 0,1.67187 q 0,0.70313 0.0312,0.85938 0.0312,0.15625 0.0781,0.21875 0.0625,0.0469 0.15625,0.0469 0.0781,0 0.14062,-0.0469 0.10938,-0.0625 0.4375,-0.39063 l 0,0.3125 q -0.59375,0.79688 -1.14062,0.79688 -0.26563,0 -0.42188,-0.17188 -0.15625,-0.1875 -0.17187,-0.625 z m 0,-0.35937 0,-1.875 q -0.79688,0.32812 -1.04688,0.46875 -0.42187,0.23437 -0.60937,0.5 -0.17188,0.25 -0.17188,0.54687 0,0.39063 0.21875,0.65625 0.23438,0.25 0.54688,0.25 0.40625,0 1.0625,-0.54687 z m 1.85477,-6.34375 0,-0.23438 q 0.8125,0.40625 1.35937,0.95313 0.76563,0.78125 1.1875,1.84375 0.42188,1.04687 0.42188,2.20312 0,1.65625 -0.82813,3.03125 -0.8125,1.375 -2.14062,1.96875 l 0,-0.20312 q 0.65625,-0.375 1.07812,-1.01563 0.4375,-0.625 0.64063,-1.59375 0.20312,-0.96875 0.20312,-2.03125 0,-1.14062 -0.17187,-2.09375 -0.14063,-0.73437 -0.34375,-1.17187 -0.1875,-0.45313 -0.53125,-0.85938 -0.32813,-0.42187 -0.875,-0.79687 z"
       id="path15"
       inkscape:connector-curvature="0"
       style="fill:#000000;fill-rule:nonzero" />
    <defs
       id="defs17">
      <radialGradient
         id="p_1.1"
         gradientUnits="userSpaceOnUse"
         gradientTransform="scale(3.1220804,3.1220804)"
         spreadMethod="pad"
         cx="117.74126"
         cy="120.18689"
         fx="117.74126"
         fy="120.18689"
         r="3.1220803">
        <stop
           offset="0.0"
           stop-color="#d8d8d8"
           id="stop20" />
        <stop
           offset="1.0"
           stop-color="#7f7f7f"
           id="stop22" />
      </radialGradient>
    </defs>
    <path
       d="m 360.2485,375.23312 0,0 c 0,-3.53638 3.29034,-6.4032 7.34918,-6.4032 l 0,0 c 4.05884,0 7.34918,2.86682 7.34918,6.4032 l 0,0 c 0,3.53641 -3.29034,6.4032 -7.34918,6.4032 l 0,0 c -4.05884,0 -7.34918,-2.86679 -7.34918,-6.4032 z"
       id="path24"
       inkscape:connector-curvature="0"
       style="fill:url(#p_1.1);fill-rule:nonzero" />
    <path
       d="m 367.5977,368.82993 -0.01,-35.06949"
       id="path26"
       inkscape:connector-curvature="0"
       style="fill:#ffffff;fill-rule:nonzero" />
    <path
       d="m 367.5977,368.82993 -0.01,-35.06949"
       id="path28"
       inkscape:connector-curvature="0"
       style="fill-rule:nonzero;stroke:#7f7f7f;stroke-width:2.66666675;stroke-linecap:butt;stroke-linejoin:round" />
    <path
       d="m 372.79443,370.70532 28.94604,-28.06815"
       id="path30"
       inkscape:connector-curvature="0"
       style="fill:#ffffff;fill-rule:nonzero" />
    <path
       d="m 372.79443,370.70532 28.94604,-28.06815"
       id="path32"
       inkscape:connector-curvature="0"
       style="fill-rule:nonzero;stroke:#7f7f7f;stroke-width:2.66666675;stroke-linecap:butt;stroke-linejoin:round" />
    <path
       d="m 374.94687,375.2331 39.95865,-10e-4"
       id="path34"
       inkscape:connector-curvature="0"
       style="fill:#ffffff;fill-rule:nonzero" />
    <path
       d="m 374.94687,375.2331 39.95865,-10e-4"
       id="path36"
       inkscape:connector-curvature="0"
       style="fill-rule:nonzero;stroke:#7f7f7f;stroke-width:2.66666675;stroke-linecap:butt;stroke-linejoin:round" />
    <path
       d="m 372.79443,379.76096 24.09576,23.46426"
       id="path38"
       inkscape:connector-curvature="0"
       style="fill:#ffffff;fill-rule:nonzero" />
    <path
       d="m 372.79443,379.76096 24.09576,23.46426"
       id="path40"
       inkscape:connector-curvature="0"
       style="fill-rule:nonzero;stroke:#7f7f7f;stroke-width:2.66666675;stroke-linecap:butt;stroke-linejoin:round" />
    <path
       d="m 367.59653,414.33072 0.001,-32.69428"
       id="path42"
       inkscape:connector-curvature="0"
       style="fill:#ffffff;fill-rule:nonzero" />
    <path
       d="m 367.59653,414.33072 0.001,-32.69428"
       id="path44"
       inkscape:connector-curvature="0"
       style="fill-rule:nonzero;stroke:#7f7f7f;stroke-width:2.66666675;stroke-linecap:butt;stroke-linejoin:round" />
    <path
       d="m 333.9874,408.29355 28.41354,-28.53259"
       id="path46"
       inkscape:connector-curvature="0"
       style="fill:#ffffff;fill-rule:nonzero" />
    <path
       d="m 333.9874,408.29355 28.41354,-28.53259"
       id="path48"
       inkscape:connector-curvature="0"
       style="fill-rule:nonzero;stroke:#7f7f7f;stroke-width:2.66666675;stroke-linecap:butt;stroke-linejoin:round" />
    <path
       d="m 318.59317,375.23193 41.65533,0.001"
       id="path50"
       inkscape:connector-curvature="0"
       style="fill:#ffffff;fill-rule:nonzero" />
    <path
       d="m 318.59317,375.23193 41.65533,0.001"
       id="path52"
       inkscape:connector-curvature="0"
       style="fill-rule:nonzero;stroke:#7f7f7f;stroke-width:2.66666675;stroke-linecap:butt;stroke-linejoin:round" />
    <path
       d="m 333.9809,343.08127 28.42017,27.62393"
       id="path54"
       inkscape:connector-curvature="0"
       style="fill:#ffffff;fill-rule:nonzero" />
    <path
       d="m 333.9809,343.08127 28.42017,27.62393"
       id="path56"
       inkscape:connector-curvature="0"
       style="fill-rule:nonzero;stroke:#7f7f7f;stroke-width:2.66666675;stroke-linecap:butt;stroke-linejoin:round" />
    <path
       d="m 474.39224,424.19235 0,27.39578 42.46719,0 0,-27.39578 z"
       id="path58"
       inkscape:connector-curvature="0"
       style="fill:#ffffff;fill-rule:nonzero" />
    <path
       d="m 486.81412,440.5886 0,0.20312 q -0.8125,-0.42187 -1.35938,-0.96875 -0.76562,-0.76562 -1.1875,-1.82812 -0.42187,-1.0625 -0.42187,-2.20313 0,-1.65625 0.8125,-3.03125 0.82812,-1.375 2.15625,-1.96875 l 0,0.23438 q -0.67188,0.35937 -1.09375,1 -0.42188,0.625 -0.64063,1.60937 -0.20312,0.96875 -0.20312,2.01563 0,1.15625 0.1875,2.09375 0.14062,0.73437 0.32812,1.1875 0.20313,0.45312 0.53125,0.85937 0.34375,0.42188 0.89063,0.79688 z m 1.81424,-6.23438 q 0.71875,-0.98437 1.54687,-0.98437 0.75,0 1.3125,0.65625 0.57813,0.64062 0.57813,1.76562 0,1.29688 -0.875,2.10938 -0.75,0.6875 -1.67188,0.6875 -0.42187,0 -0.875,-0.15625 -0.4375,-0.15625 -0.89062,-0.46875 l 0,-5.09375 q 0,-0.84375 -0.0469,-1.03125 -0.0469,-0.20313 -0.14062,-0.26563 -0.0781,-0.0781 -0.20313,-0.0781 -0.14062,0 -0.375,0.0937 l -0.0781,-0.1875 1.48437,-0.60938 0.23438,0 0,3.5625 z m 0,0.34375 0,2.95313 q 0.28125,0.26562 0.5625,0.40625 0.29687,0.14062 0.60937,0.14062 0.48438,0 0.90625,-0.53125 0.42188,-0.54687 0.42188,-1.57812 0,-0.9375 -0.42188,-1.4375 -0.42187,-0.51563 -0.95312,-0.51563 -0.28125,0 -0.57813,0.14063 -0.20312,0.10937 -0.54687,0.42187 z m 3.89062,-3.67187 0,-0.23438 q 0.8125,0.40625 1.35938,0.95313 0.76562,0.78125 1.1875,1.84375 0.42187,1.04687 0.42187,2.20312 0,1.65625 -0.82812,3.03125 -0.8125,1.375 -2.14063,1.96875 l 0,-0.20312 q 0.65625,-0.375 1.07813,-1.01563 0.4375,-0.625 0.64062,-1.59375 0.20313,-0.96875 0.20313,-2.03125 0,-1.14062 -0.17188,-2.09375 -0.14062,-0.73437 -0.34375,-1.17187 -0.1875,-0.45313 -0.53125,-0.85938 -0.32812,-0.42187 -0.875,-0.79687 z"
       id="path60"
       inkscape:connector-curvature="0"
       style="fill:#000000;fill-rule:nonzero" />
    <defs
       id="defs62">
      <radialGradient
         id="p_1.2"
         gradientUnits="userSpaceOnUse"
         gradientTransform="scale(3.1202919,3.1202919)"
         spreadMethod="pad"
         cx="150.07281"
         cy="116.38744"
         fx="150.07281"
         fy="116.38744"
         r="3.1202919">
        <stop
           offset="0.0"
           stop-color="#d8d8d8"
           id="stop65" />
        <stop
           offset="1.0"
           stop-color="#bfbfbf"
           id="stop67" />
      </radialGradient>
    </defs>
    <path
       d="m 460.92178,363.16278 0,0 c 0,-3.52698 3.29034,-6.38617 7.34918,-6.38617 l 0,0 c 4.05884,0 7.34918,2.85919 7.34918,6.38617 l 0,0 c 0,3.52701 -3.29034,6.3862 -7.34918,6.3862 l 0,0 c -4.05884,0 -7.34918,-2.85919 -7.34918,-6.3862 z"
       id="path69"
       inkscape:connector-curvature="0"
       style="fill:url(#p_1.2);fill-rule:nonzero" />
    <path
       d="m 468.27097,356.7766 -0.0234,-23.72464"
       id="path71"
       inkscape:connector-curvature="0"
       style="fill:#ffffff;fill-rule:nonzero" />
    <path
       d="m 468.27097,356.7766 -0.0234,-23.72464"
       id="path73"
       inkscape:connector-curvature="0"
       style="fill-rule:nonzero;stroke:#7f7f7f;stroke-width:2.66666675;stroke-linecap:butt;stroke-linejoin:round" />
    <path
       d="m 433.47842,363.13913 27.44336,0.0236"
       id="path75"
       inkscape:connector-curvature="0"
       style="fill:#ffffff;fill-rule:nonzero" />
    <path
       d="m 433.47842,363.13913 27.44336,0.0236"
       id="path77"
       inkscape:connector-curvature="0"
       style="fill-rule:nonzero;stroke:#7f7f7f;stroke-width:2.66666675;stroke-linecap:butt;stroke-linejoin:round" />
    <path
       d="m 443.66226,339.8311 19.41196,18.81586"
       id="path79"
       inkscape:connector-curvature="0"
       style="fill:#ffffff;fill-rule:nonzero" />
    <path
       d="m 443.66226,339.8311 19.41196,18.81586"
       id="path81"
       inkscape:connector-curvature="0"
       style="fill-rule:nonzero;stroke:#7f7f7f;stroke-width:2.66666675;stroke-linecap:butt;stroke-linejoin:round" />
    <defs
       id="defs83">
      <radialGradient
         id="p_1.3"
         gradientUnits="userSpaceOnUse"
         gradientTransform="scale(3.1202919,3.1202919)"
         spreadMethod="pad"
         cx="158.10385"
         cy="125.59423"
         fx="158.10385"
         fy="125.59423"
         r="3.1202919">
        <stop
           offset="0.0"
           stop-color="#d8d8d8"
           id="stop86" />
        <stop
           offset="1.0"
           stop-color="#bfbfbf"
           id="stop88" />
      </radialGradient>
    </defs>
    <path
       d="m 485.981,391.89066 0,0 c 0,-3.52698 3.29034,-6.38617 7.34921,-6.38617 l 0,0 c 4.05884,0 7.34918,2.85919 7.34918,6.38617 l 0,0 c 0,3.52701 -3.29034,6.3862 -7.34918,6.3862 l 0,0 c -4.05887,0 -7.34921,-2.85919 -7.34921,-6.3862 z"
       id="path90"
       inkscape:connector-curvature="0"
       style="fill:url(#p_1.3);fill-rule:nonzero" />
    <path
       d="m 493.30447,423.20316 0.0257,-24.92618"
       id="path92"
       inkscape:connector-curvature="0"
       style="fill:#ffffff;fill-rule:nonzero" />
    <path
       d="m 493.30447,423.20316 0.0257,-24.92618"
       id="path94"
       inkscape:connector-curvature="0"
       style="fill-rule:nonzero;stroke:#7f7f7f;stroke-width:2.66666675;stroke-linecap:butt;stroke-linejoin:round" />
    <path
       d="m 468.24756,416.09 19.8859,-19.68347"
       id="path96"
       inkscape:connector-curvature="0"
       style="fill:#ffffff;fill-rule:nonzero" />
    <path
       d="m 468.24756,416.09 19.8859,-19.68347"
       id="path98"
       inkscape:connector-curvature="0"
       style="fill-rule:nonzero;stroke:#7f7f7f;stroke-width:2.66666675;stroke-linecap:butt;stroke-linejoin:round" />
    <defs
       id="defs100">
      <radialGradient
         id="p_1.4"
         gradientUnits="userSpaceOnUse"
         gradientTransform="scale(3.1202919,3.1202919)"
         spreadMethod="pad"
         cx="165.11942"
         cy="116.36332"
         fx="165.11942"
         fy="116.36332"
         r="3.1202919">
        <stop
           offset="0.0"
           stop-color="#d8d8d8"
           id="stop103" />
        <stop
           offset="1.0"
           stop-color="#bfbfbf"
           id="stop105" />
      </radialGradient>
    </defs>
    <path
       d="m 507.8716,363.08752 0,0 c 0,-3.52701 3.29034,-6.3862 7.34915,-6.3862 l 0,0 c 4.0589,0 7.34924,2.85919 7.34924,6.3862 l 0,0 c 0,3.52698 -3.29034,6.3862 -7.34924,6.3862 l 0,0 c -4.05881,0 -7.34915,-2.85922 -7.34915,-6.3862 z"
       id="path107"
       inkscape:connector-curvature="0"
       style="fill:url(#p_1.4);fill-rule:nonzero" />
    <path
       d="m 520.41754,358.57166 19.27643,-18.75305"
       id="path109"
       inkscape:connector-curvature="0"
       style="fill:#ffffff;fill-rule:nonzero" />
    <path
       d="m 520.41754,358.57166 19.27643,-18.75305"
       id="path111"
       inkscape:connector-curvature="0"
       style="fill-rule:nonzero;stroke:#7f7f7f;stroke-width:2.66666675;stroke-linecap:butt;stroke-linejoin:round" />
    <path
       d="m 522.56995,363.08746 26.68433,-0.0236"
       id="path113"
       inkscape:connector-curvature="0"
       style="fill:#ffffff;fill-rule:nonzero" />
    <path
       d="m 522.56995,363.08746 26.68433,-0.0236"
       id="path115"
       inkscape:connector-curvature="0"
       style="fill-rule:nonzero;stroke:#7f7f7f;stroke-width:2.66666675;stroke-linecap:butt;stroke-linejoin:round" />
    <path
       d="m 520.41754,367.60336 20.45374,19.75446"
       id="path117"
       inkscape:connector-curvature="0"
       style="fill:#ffffff;fill-rule:nonzero" />
    <path
       d="m 520.41754,367.60336 20.45374,19.75446"
       id="path119"
       inkscape:connector-curvature="0"
       style="fill-rule:nonzero;stroke:#7f7f7f;stroke-width:2.66666675;stroke-linecap:butt;stroke-linejoin:round" />
    <path
       d="m 473.4677,367.67865 14.66574,19.69626"
       id="path121"
       inkscape:connector-curvature="0"
       style="fill:#ffffff;fill-rule:nonzero" />
    <path
       d="m 473.4677,367.67865 14.66574,19.69626"
       id="path123"
       inkscape:connector-curvature="0"
       style="fill-rule:nonzero;stroke:#bfbfbf;stroke-width:2.66666675;stroke-linecap:butt;stroke-linejoin:round" />
    <path
       d="m 475.62015,363.16275 32.25134,-0.0752"
       id="path125"
       inkscape:connector-curvature="0"
       style="fill:#ffffff;fill-rule:nonzero" />
    <path
       d="m 475.62015,363.16275 32.25134,-0.0752"
       id="path127"
       inkscape:connector-curvature="0"
       style="fill-rule:nonzero;stroke:#bfbfbf;stroke-width:2.66666675;stroke-linecap:butt;stroke-linejoin:round" />
    <path
       d="m 605.3557,424.10583 0,27.29114 43.48804,0 0,-27.29114 z"
       id="path129"
       inkscape:connector-curvature="0"
       style="fill:#ffffff;fill-rule:nonzero" />
    <path
       d="m 617.7776,440.50208 0,0.20312 q -0.8125,-0.42187 -1.35938,-0.96875 -0.76562,-0.76562 -1.1875,-1.82812 -0.42187,-1.0625 -0.42187,-2.20313 0,-1.65625 0.8125,-3.03125 0.82812,-1.375 2.15625,-1.96875 l 0,0.23438 q -0.67188,0.35937 -1.09375,1 -0.42188,0.625 -0.64063,1.60937 -0.20312,0.96875 -0.20312,2.01563 0,1.15625 0.1875,2.09375 0.14062,0.73437 0.32812,1.1875 0.20313,0.45312 0.53125,0.85937 0.34375,0.42188 0.89063,0.79688 z m 4.64233,-4.03125 q -0.1875,0.98437 -0.78125,1.51562 -0.57812,0.51563 -1.28125,0.51563 -0.82812,0 -1.45312,-0.70313 -0.625,-0.70312 -0.625,-1.90625 0,-1.15625 0.6875,-1.875 0.6875,-0.73437 1.65625,-0.73437 0.73437,0 1.20312,0.39062 0.46875,0.375 0.46875,0.78125 0,0.21875 -0.14062,0.34375 -0.125,0.125 -0.35938,0.125 -0.32812,0 -0.48437,-0.20312 -0.0937,-0.125 -0.125,-0.4375 -0.0312,-0.3125 -0.21875,-0.48438 -0.1875,-0.15625 -0.51563,-0.15625 -0.53125,0 -0.85937,0.39063 -0.4375,0.53125 -0.4375,1.39062 0,0.89063 0.42187,1.5625 0.4375,0.67188 1.17188,0.67188 0.53125,0 0.95312,-0.35938 0.29688,-0.25 0.5625,-0.89062 l 0.15625,0.0625 z m 0.46412,-5.53125 0,-0.23438 q 0.8125,0.40625 1.35937,0.95313 0.76563,0.78125 1.1875,1.84375 0.42188,1.04687 0.42188,2.20312 0,1.65625 -0.82813,3.03125 -0.8125,1.375 -2.14062,1.96875 l 0,-0.20312 q 0.65625,-0.375 1.07812,-1.01563 0.4375,-0.625 0.64063,-1.59375 0.20312,-0.96875 0.20312,-2.03125 0,-1.14062 -0.17187,-2.09375 -0.14063,-0.73437 -0.34375,-1.17187 -0.1875,-0.45313 -0.53125,-0.85938 -0.32813,-0.42187 -0.875,-0.79687 z"
       id="path131"
       inkscape:connector-curvature="0"
       style="fill:#000000;fill-rule:nonzero" />
    <defs
       id="defs133">
      <radialGradient
         id="p_1.5"
         gradientUnits="userSpaceOnUse"
         gradientTransform="scale(3.1130913,3.1130913)"
         spreadMethod="pad"
         cx="192.80972"
         cy="116.63242"
         fx="192.80972"
         fy="116.63242"
         r="3.1130912">
        <stop
           offset="0.0"
           stop-color="#d8d8d8"
           id="stop136" />
        <stop
           offset="1.0"
           stop-color="#bfbfbf"
           id="stop138" />
      </radialGradient>
    </defs>
    <path
       d="m 592.9156,363.08737 0,0 c 0,-3.50861 3.27667,-6.35287 7.31866,-6.35287 l 0,0 c 4.042,0 7.31873,2.84426 7.31873,6.35287 l 0,0 c 0,3.50858 -3.27673,6.35284 -7.31873,6.35284 l 0,0 c -4.04199,0 -7.31866,-2.84426 -7.31866,-6.35284 z"
       id="path140"
       inkscape:connector-curvature="0"
       style="fill:url(#p_1.5);fill-rule:nonzero" />
    <path
       d="m 600.19104,356.7345 0,-23.6824"
       id="path142"
       inkscape:connector-curvature="0"
       style="fill:#ffffff;fill-rule:nonzero" />
    <path
       d="m 600.19104,356.7345 0,-23.6824"
       id="path144"
       inkscape:connector-curvature="0"
       style="fill-rule:nonzero;stroke:#7f7f7f;stroke-width:2.66666675;stroke-linecap:butt;stroke-linejoin:round" />
    <path
       d="m 565.4597,363.04977 27.36926,0"
       id="path146"
       inkscape:connector-curvature="0"
       style="fill:#ffffff;fill-rule:nonzero" />
    <path
       d="m 565.4597,363.04977 27.36926,0"
       id="path148"
       inkscape:connector-curvature="0"
       style="fill-rule:nonzero;stroke:#7f7f7f;stroke-width:2.66666675;stroke-linecap:butt;stroke-linejoin:round" />
    <path
       d="m 575.6799,339.81848 19.40094,18.72031"
       id="path150"
       inkscape:connector-curvature="0"
       style="fill:#ffffff;fill-rule:nonzero" />
    <path
       d="m 575.6799,339.81848 19.40094,18.72031"
       id="path152"
       inkscape:connector-curvature="0"
       style="fill-rule:nonzero;stroke:#7f7f7f;stroke-width:2.66666675;stroke-linecap:butt;stroke-linejoin:round" />
    <defs
       id="defs154">
      <radialGradient
         id="p_1.6"
         gradientUnits="userSpaceOnUse"
         gradientTransform="scale(3.1130913,3.1130913)"
         spreadMethod="pad"
         cx="200.85023"
         cy="125.83369"
         fx="200.85023"
         fy="125.83369"
         r="3.1130912">
        <stop
           offset="0.0"
           stop-color="#d8d8d8"
           id="stop157" />
        <stop
           offset="1.0"
           stop-color="#bfbfbf"
           id="stop159" />
      </radialGradient>
    </defs>
    <path
       d="m 617.9465,391.73178 0,0 c 0,-3.50861 3.27667,-6.35287 7.31866,-6.35287 l 0,0 c 4.042,0 7.31867,2.84426 7.31867,6.35287 l 0,0 c 0,3.50858 -3.27667,6.35284 -7.31867,6.35284 l 0,0 c -4.04199,0 -7.31866,-2.84426 -7.31866,-6.35284 z"
       id="path161"
       inkscape:connector-curvature="0"
       style="fill:url(#p_1.6);fill-rule:nonzero" />
    <path
       d="m 625.3084,423.04517 0,-24.88525"
       id="path163"
       inkscape:connector-curvature="0"
       style="fill:#ffffff;fill-rule:nonzero" />
    <path
       d="m 625.3084,423.04517 0,-24.88525"
       id="path165"
       inkscape:connector-curvature="0"
       style="fill-rule:nonzero;stroke:#7f7f7f;stroke-width:2.66666675;stroke-linecap:butt;stroke-linejoin:round" />
    <path
       d="m 600.19104,415.9029 19.83404,-19.62256"
       id="path167"
       inkscape:connector-curvature="0"
       style="fill:#ffffff;fill-rule:nonzero" />
    <path
       d="m 600.19104,415.9029 19.83404,-19.62256"
       id="path169"
       inkscape:connector-curvature="0"
       style="fill-rule:nonzero;stroke:#7f7f7f;stroke-width:2.66666675;stroke-linecap:butt;stroke-linejoin:round" />
    <defs
       id="defs171">
      <radialGradient
         id="p_1.7"
         gradientUnits="userSpaceOnUse"
         gradientTransform="scale(3.1130913,3.1130913)"
         spreadMethod="pad"
         cx="207.88914"
         cy="116.60823"
         fx="207.88914"
         fy="116.60823"
         r="3.1130912">
        <stop
           offset="0.0"
           stop-color="#d8d8d8"
           id="stop174" />
        <stop
           offset="1.0"
           stop-color="#bfbfbf"
           id="stop176" />
      </radialGradient>
    </defs>
    <path
       d="m 639.8592,363.0121 0,0 c 0,-3.50858 3.27667,-6.35287 7.31873,-6.35287 l 0,0 c 4.04199,0 7.31866,2.84429 7.31866,6.35287 l 0,0 c 0,3.50858 -3.27667,6.35284 -7.31866,6.35284 l 0,0 c -4.04206,0 -7.31873,-2.84426 -7.31873,-6.35284 z"
       id="path178"
       inkscape:connector-curvature="0"
       style="fill:url(#p_1.7);fill-rule:nonzero" />
    <path
       d="m 652.4179,358.46353 19.22784,-18.72031"
       id="path180"
       inkscape:connector-curvature="0"
       style="fill:#ffffff;fill-rule:nonzero" />
    <path
       d="m 652.4179,358.46353 19.22784,-18.72031"
       id="path182"
       inkscape:connector-curvature="0"
       style="fill-rule:nonzero;stroke:#7f7f7f;stroke-width:2.66666675;stroke-linecap:butt;stroke-linejoin:round" />
    <path
       d="m 654.5832,362.9746 26.67645,0"
       id="path184"
       inkscape:connector-curvature="0"
       style="fill:#ffffff;fill-rule:nonzero" />
    <path
       d="m 654.5832,362.9746 26.67645,0"
       id="path186"
       inkscape:connector-curvature="0"
       style="fill-rule:nonzero;stroke:#7f7f7f;stroke-width:2.66666675;stroke-linecap:butt;stroke-linejoin:round" />
    <path
       d="m 652.4179,367.48547 20.44037,19.69772"
       id="path188"
       inkscape:connector-curvature="0"
       style="fill:#ffffff;fill-rule:nonzero" />
    <path
       d="m 652.4179,367.48547 20.44037,19.69772"
       id="path190"
       inkscape:connector-curvature="0"
       style="fill-rule:nonzero;stroke:#7f7f7f;stroke-width:2.66666675;stroke-linecap:butt;stroke-linejoin:round" />
    <path
       d="m 605.4743,367.56073 14.63739,19.62259"
       id="path192"
       inkscape:connector-curvature="0"
       style="fill:#ffffff;fill-rule:nonzero" />
    <path
       d="m 605.4743,367.56073 5.07074,6.79767"
       id="path194"
       inkscape:connector-curvature="0"
       style="fill-rule:evenodd;stroke:#bfbfbf;stroke-width:2.66666675;stroke-linecap:butt;stroke-linejoin:round" />
    <path
       d="m 607.01447,376.992 10.7663,7.06653 -3.7052,-12.33374 z"
       id="path196"
       inkscape:connector-curvature="0"
       style="fill:#bfbfbf;fill-rule:evenodd;stroke:#bfbfbf;stroke-width:2.66666675;stroke-linecap:butt" />
    <path
       d="m 607.55304,363.04977 32.21954,-0.0752"
       id="path198"
       inkscape:connector-curvature="0"
       style="fill:#ffffff;fill-rule:nonzero" />
    <path
       d="m 607.55304,363.04977 16.2196,-0.0378"
       id="path200"
       inkscape:connector-curvature="0"
       style="fill-rule:evenodd;stroke:#bfbfbf;stroke-width:2.66666675;stroke-linecap:butt;stroke-linejoin:round" />
    <path
       d="m 623.7829,367.41656 12.09131,-4.43286 -12.11182,-4.37637 z"
       id="path202"
       inkscape:connector-curvature="0"
       style="fill:#bfbfbf;fill-rule:evenodd;stroke:#bfbfbf;stroke-width:2.66666675;stroke-linecap:butt" />
    <path
       d="m 736.3113,424.2466 0,27.39328 44.33154,0 0,-27.39328 z"
       id="path204"
       inkscape:connector-curvature="0"
       style="fill:#ffffff;fill-rule:nonzero" />
    <path
       d="m 748.73315,440.64288 0,0.20312 q -0.8125,-0.42187 -1.35937,-0.96875 -0.76563,-0.76562 -1.1875,-1.82812 -0.42188,-1.0625 -0.42188,-2.20313 0,-1.65625 0.8125,-3.03125 0.82813,-1.375 2.15625,-1.96875 l 0,0.23438 q -0.67187,0.35937 -1.09375,1 -0.42187,0.625 -0.64062,1.60937 -0.20313,0.96875 -0.20313,2.01563 0,1.15625 0.1875,2.09375 0.14063,0.73437 0.32813,1.1875 0.20312,0.45312 0.53125,0.85937 0.34375,0.42188 0.89062,0.79688 z m 3.93927,-2.70313 q -0.35938,0.375 -0.70313,0.54688 -0.34375,0.15625 -0.73437,0.15625 -0.8125,0 -1.42188,-0.67188 -0.59375,-0.6875 -0.59375,-1.73437 0,-1.0625 0.67188,-1.9375 0.67187,-0.89063 1.71875,-0.89063 0.64062,0 1.0625,0.42188 l 0,-0.90625 q 0,-0.84375 -0.0469,-1.03125 -0.0312,-0.20313 -0.125,-0.26563 -0.0781,-0.0781 -0.20312,-0.0781 -0.14063,0 -0.375,0.0937 l -0.0625,-0.1875 1.46875,-0.60938 0.23437,0 0,5.6875 q 0,0.875 0.0312,1.0625 0.0469,0.1875 0.14063,0.26563 0.0937,0.0781 0.20312,0.0781 0.14063,0 0.39063,-0.0937 l 0.0625,0.1875 -1.46875,0.60938 -0.25,0 0,-0.70313 z m 0,-0.375 0,-2.54687 q -0.0312,-0.35938 -0.1875,-0.65625 -0.15625,-0.3125 -0.42188,-0.45313 -0.26562,-0.15625 -0.51562,-0.15625 -0.48438,0 -0.84375,0.42188 -0.5,0.5625 -0.5,1.625 0,1.09375 0.46875,1.67187 0.48437,0.57813 1.0625,0.57813 0.48437,0 0.9375,-0.48438 z m 1.76562,-6.48437 0,-0.23438 q 0.8125,0.40625 1.35938,0.95313 0.76562,0.78125 1.1875,1.84375 0.42187,1.04687 0.42187,2.20312 0,1.65625 -0.82812,3.03125 -0.8125,1.375 -2.14063,1.96875 l 0,-0.20312 q 0.65625,-0.375 1.07813,-1.01563 0.4375,-0.625 0.64062,-1.59375 0.20313,-0.96875 0.20313,-2.03125 0,-1.14062 -0.17188,-2.09375 -0.14062,-0.73437 -0.34375,-1.17187 -0.1875,-0.45313 -0.53125,-0.85938 -0.32812,-0.42187 -0.875,-0.79687 z"
       id="path206"
       inkscape:connector-curvature="0"
       style="fill:#000000;fill-rule:nonzero" />
    <defs
       id="defs208">
      <radialGradient
         id="p_1.8"
         gradientUnits="userSpaceOnUse"
         gradientTransform="scale(3.1155967,3.1155967)"
         spreadMethod="pad"
         cx="235.0222"
         cy="116.78867"
         fx="235.0222"
         fy="116.78867"
         r="3.1155968">
        <stop
           offset="0.0"
           stop-color="#d8d8d8"
           id="stop211" />
        <stop
           offset="1.0"
           stop-color="#bfbfbf"
           id="stop213" />
      </radialGradient>
    </defs>
    <path
       d="m 724.9157,363.86642 0,0 c 0,-3.52173 3.27667,-6.37665 7.31866,-6.37665 l 0,0 c 4.042,0 7.31873,2.85492 7.31873,6.37665 l 0,0 c 0,3.5217 -3.27673,6.37662 -7.31873,6.37662 l 0,0 c -4.04199,0 -7.31866,-2.85492 -7.31866,-6.37662 z"
       id="path215"
       inkscape:connector-curvature="0"
       style="fill:url(#p_1.8);fill-rule:nonzero" />
    <path
       d="m 732.19116,357.48978 0,-23.77103"
       id="path217"
       inkscape:connector-curvature="0"
       style="fill:#ffffff;fill-rule:nonzero" />
    <path
       d="m 732.19116,357.48978 0,-23.77103"
       id="path219"
       inkscape:connector-curvature="0"
       style="fill-rule:nonzero;stroke:#7f7f7f;stroke-width:2.66666675;stroke-linecap:butt;stroke-linejoin:round" />
    <path
       d="m 697.45984,363.82877 27.36926,0"
       id="path221"
       inkscape:connector-curvature="0"
       style="fill:#ffffff;fill-rule:nonzero" />
    <path
       d="m 697.45984,363.82877 27.36926,0"
       id="path223"
       inkscape:connector-curvature="0"
       style="fill-rule:nonzero;stroke:#7f7f7f;stroke-width:2.66666675;stroke-linecap:butt;stroke-linejoin:round" />
    <path
       d="m 707.68,340.51047 19.40094,18.79044"
       id="path225"
       inkscape:connector-curvature="0"
       style="fill:#ffffff;fill-rule:nonzero" />
    <path
       d="m 707.68,340.51047 19.40094,18.79044"
       id="path227"
       inkscape:connector-curvature="0"
       style="fill-rule:nonzero;stroke:#7f7f7f;stroke-width:2.66666675;stroke-linecap:butt;stroke-linejoin:round" />
    <defs
       id="defs229">
      <radialGradient
         id="p_1.9"
         gradientUnits="userSpaceOnUse"
         gradientTransform="scale(3.1155967,3.1155967)"
         spreadMethod="pad"
         cx="243.05626"
         cy="126.01699"
         fx="243.05626"
         fy="126.01699"
         r="3.1155968">
        <stop
           offset="0.0"
           stop-color="#d8d8d8"
           id="stop232" />
        <stop
           offset="1.0"
           stop-color="#bfbfbf"
           id="stop234" />
      </radialGradient>
    </defs>
    <path
       d="m 749.9466,392.61813 0,0 c 0,-3.52173 3.27667,-6.37665 7.31866,-6.37665 l 0,0 c 4.042,0 7.31867,2.85492 7.31867,6.37665 l 0,0 c 0,3.5217 -3.27667,6.37662 -7.31867,6.37662 l 0,0 c -4.04199,0 -7.31866,-2.85492 -7.31866,-6.37662 z"
       id="path236"
       inkscape:connector-curvature="0"
       style="fill:url(#p_1.9);fill-rule:nonzero" />
    <path
       d="m 757.30853,424.0487 0,-24.97846"
       id="path238"
       inkscape:connector-curvature="0"
       style="fill:#ffffff;fill-rule:nonzero" />
    <path
       d="m 757.30853,424.0487 0,-24.97846"
       id="path240"
       inkscape:connector-curvature="0"
       style="fill-rule:nonzero;stroke:#7f7f7f;stroke-width:2.66666675;stroke-linecap:butt;stroke-linejoin:round" />
    <path
       d="M 732.19116,416.8797 752.0252,397.18375"
       id="path242"
       inkscape:connector-curvature="0"
       style="fill:#ffffff;fill-rule:nonzero" />
    <path
       d="M 732.19116,416.8797 752.0252,397.18375"
       id="path244"
       inkscape:connector-curvature="0"
       style="fill-rule:nonzero;stroke:#7f7f7f;stroke-width:2.66666675;stroke-linecap:butt;stroke-linejoin:round" />
    <defs
       id="defs246">
      <radialGradient
         id="p_1.10"
         gradientUnits="userSpaceOnUse"
         gradientTransform="scale(3.1155967,3.1155967)"
         spreadMethod="pad"
         cx="250.08949"
         cy="116.76445"
         fx="250.08949"
         fy="116.76445"
         r="3.1155968">
        <stop
           offset="0.0"
           stop-color="#d8d8d8"
           id="stop249" />
        <stop
           offset="1.0"
           stop-color="#bfbfbf"
           id="stop251" />
      </radialGradient>
    </defs>
    <path
       d="m 771.8593,363.79092 0,0 c 0,-3.52173 3.27667,-6.37665 7.31873,-6.37665 l 0,0 c 4.04199,0 7.31866,2.85492 7.31866,6.37665 l 0,0 c 0,3.52173 -3.27667,6.37665 -7.31866,6.37665 l 0,0 c -4.04206,0 -7.31873,-2.85492 -7.31873,-6.37665 z"
       id="path253"
       inkscape:connector-curvature="0"
       style="fill:url(#p_1.10);fill-rule:nonzero" />
    <path
       d="m 784.4181,359.2254 19.22778,-18.79044"
       id="path255"
       inkscape:connector-curvature="0"
       style="fill:#ffffff;fill-rule:nonzero" />
    <path
       d="m 784.4181,359.2254 19.22778,-18.79044"
       id="path257"
       inkscape:connector-curvature="0"
       style="fill-rule:nonzero;stroke:#7f7f7f;stroke-width:2.66666675;stroke-linecap:butt;stroke-linejoin:round" />
    <path
       d="m 786.5833,363.7533 26.67645,0"
       id="path259"
       inkscape:connector-curvature="0"
       style="fill:#ffffff;fill-rule:nonzero" />
    <path
       d="m 786.5833,363.7533 26.67645,0"
       id="path261"
       inkscape:connector-curvature="0"
       style="fill-rule:nonzero;stroke:#7f7f7f;stroke-width:2.66666675;stroke-linecap:butt;stroke-linejoin:round" />
    <path
       d="m 784.4181,368.28107 20.44031,19.77142"
       id="path263"
       inkscape:connector-curvature="0"
       style="fill:#ffffff;fill-rule:nonzero" />
    <path
       d="m 784.4181,368.28107 20.44031,19.77142"
       id="path265"
       inkscape:connector-curvature="0"
       style="fill-rule:nonzero;stroke:#7f7f7f;stroke-width:2.66666675;stroke-linecap:butt;stroke-linejoin:round" />
    <path
       d="m 737.4633,368.3536 14.62689,19.75549"
       id="path267"
       inkscape:connector-curvature="0"
       style="fill:#ffffff;fill-rule:nonzero" />
    <path
       d="m 746.9841,381.21265 5.10614,6.89645"
       id="path269"
       inkscape:connector-curvature="0"
       style="fill-rule:evenodd;stroke:#bfbfbf;stroke-width:2.66666675;stroke-linecap:butt;stroke-linejoin:round" />
    <path
       d="m 750.52405,378.59167 -10.74097,-7.10498 3.66107,12.34689 z"
       id="path271"
       inkscape:connector-curvature="0"
       style="fill:#bfbfbf;fill-rule:evenodd;stroke:#bfbfbf;stroke-width:2.66666675;stroke-linecap:butt" />
    <path
       d="m 739.55316,363.82867 32.21954,-0.0754"
       id="path273"
       inkscape:connector-curvature="0"
       style="fill:#ffffff;fill-rule:nonzero" />
    <path
       d="m 755.55304,363.79123 16.21967,-0.0379"
       id="path275"
       inkscape:connector-curvature="0"
       style="fill-rule:evenodd;stroke:#bfbfbf;stroke-width:2.66666675;stroke-linecap:butt;stroke-linejoin:round" />
    <path
       d="m 755.5428,359.38663 -12.09125,4.43292 12.11188,4.37628 z"
       id="path277"
       inkscape:connector-curvature="0"
       style="fill:#bfbfbf;fill-rule:evenodd;stroke:#bfbfbf;stroke-width:2.66666675;stroke-linecap:butt" />
  </g>
</svg>
